<?xml version="1.0" encoding="utf-8"?>
<!-- Generator: Adobe Illustrator 16.0.4, SVG Export Plug-In . SVG Version: 6.00 Build 0)  -->
<!DOCTYPE svg PUBLIC "-//W3C//DTD SVG 1.1//EN" "http://www.w3.org/Graphics/SVG/1.1/DTD/svg11.dtd">
<svg version="1.1" id="Layer_1" xmlns="http://www.w3.org/2000/svg" xmlns:xlink="http://www.w3.org/1999/xlink" x="0px" y="0px"
	 width="20px" height="20px" viewBox="0 0 20 20" enable-background="new 0 0 20 20" xml:space="preserve">
<path fill="#4D4D4D" d="M13.74,6.144c0.011-0.069,0.016-0.134,0.016-0.193c0-0.55-0.344-0.823-1.031-0.823
	c-0.33,0-0.553,0.057-0.668,0.168c-0.117,0.113-0.197,0.337-0.244,0.672c-0.264-0.371-0.528-0.621-0.797-0.751
	C10.77,5.098,10.417,5.04,9.961,5.04c-1.175,0-2.194,0.598-3.055,1.792c-0.793,1.099-1.188,2.272-1.188,3.52
	c0,0.975,0.257,1.83,0.771,2.568c0.57,0.814,1.316,1.221,2.235,1.221c0.787,0,1.543-0.283,2.267-0.848
	c0.325,0.564,0.884,0.848,1.671,0.848c1.49,0,2.768-0.629,3.826-1.889C17.496,11.055,18,9.678,18,8.124
	c0-1.859-0.782-3.41-2.348-4.651c-1.448-1.149-3.105-1.726-4.976-1.726c-2.432,0-4.473,0.769-6.126,2.307
	C2.851,5.639,2,7.663,2,10.125c0,2.518,0.872,4.449,2.614,5.799c1.564,1.217,3.616,1.822,6.158,1.822
	c1.082,0,2.137-0.168,3.166-0.508c1.129-0.371,2.058-0.898,2.787-1.582c0.234-0.225,0.461-0.5,0.676-0.822
	c0.27-0.393,0.401-0.711,0.401-0.951c0-0.184-0.062-0.346-0.192-0.49c-0.127-0.143-0.281-0.213-0.459-0.213
	c-0.338,0-0.621,0.119-0.853,0.354c-0.382,0.409-0.666,0.723-0.85,0.938c-1.25,1.092-2.804,1.639-4.662,1.639
	c-1.994,0-3.59-0.49-4.786-1.469c-1.308-1.068-1.961-2.603-1.961-4.597c0-1.935,0.621-3.552,1.866-4.851
	c1.244-1.298,2.812-1.947,4.701-1.947c1.485,0,2.722,0.422,3.707,1.268c1.058,0.896,1.584,2.09,1.584,3.578
	c0,0.779-0.133,1.506-0.401,2.177c-0.3,0.752-0.731,1.333-1.3,1.74c-0.426,0.308-0.758,0.459-1,0.459
	c-0.262,0-0.394-0.122-0.394-0.368c0-0.104,0.067-0.576,0.205-1.42L13.74,6.144z M10.709,10.596
	c-0.483,1.34-0.998,2.012-1.543,2.012c-0.814,0-1.222-0.52-1.222-1.561c0-0.807,0.233-1.716,0.702-2.73
	c0.546-1.196,1.167-1.794,1.866-1.794c0.288,0,0.504,0.156,0.646,0.468c0.114,0.238,0.173,0.521,0.173,0.85
	C11.33,8.542,11.124,9.459,10.709,10.596z"/>
</svg>
