<?xml version="1.0" encoding="utf-8"?>
<!-- Generator: Adobe Illustrator 16.0.4, SVG Export Plug-In . SVG Version: 6.00 Build 0)  -->
<!DOCTYPE svg PUBLIC "-//W3C//DTD SVG 1.1//EN" "http://www.w3.org/Graphics/SVG/1.1/DTD/svg11.dtd">
<svg version="1.1" id="Layer_1" xmlns="http://www.w3.org/2000/svg" xmlns:xlink="http://www.w3.org/1999/xlink" x="0px" y="0px"
	 width="20px" height="20px" viewBox="0 0 20 20" enable-background="new 0 0 20 20" xml:space="preserve">
<path fill="#4D4D4D" d="M19.342,3.895c-0.311,0.185-1.24,0.552-2.107,0.645c0.557-0.324,1.381-1.381,1.584-2.222
	c-0.535,0.368-1.764,0.904-2.37,0.904c0,0,0,0.001,0.001,0.003c-0.692-0.78-1.666-1.265-2.746-1.265
	c-2.098,0-3.798,1.832-3.798,4.09c0,0.313,0.035,0.618,0.097,0.912l0,0c-2.847-0.08-6.173-1.616-8.047-4.245
	C0.804,4.865,1.8,7.251,3.107,8.121C2.66,8.158,1.835,8.066,1.448,7.661c-0.027,1.423,0.61,3.312,2.929,3.996
	c-0.447,0.26-1.236,0.185-1.582,0.129c0.122,1.204,1.686,2.776,3.395,2.776c-0.609,0.758-2.688,2.137-5.26,1.696
	c1.747,1.146,3.784,1.81,5.941,1.81c6.128,0,10.886-5.348,10.631-11.944c0-0.008-0.003-0.016-0.003-0.022
	c0-0.018,0.003-0.036,0.003-0.052c0-0.02-0.003-0.041-0.003-0.062C18.059,5.578,18.807,4.852,19.342,3.895z"/>
</svg>
